<?xml version="1.0" encoding="UTF-8"?>
<!DOCTYPE svg PUBLIC "-//W3C//DTD SVG 1.1//EN" "http://www.w3.org/Graphics/SVG/1.1/DTD/svg11.dtd">
<svg version="1.1"
    xmlns="http://www.w3.org/2000/svg"
    xmlns:xlink="http://www.w3.org/1999/xlink"
                                    x="0px" y="0px" width="1300px" height="1500px" viewBox="0 0 1300 1500"
                                    enable-background="new 0 0 1300 1500" xml:space="preserve" style="cursor: pointer;">
    <g id="body">
        <g>
            <path id="body_0__RNDID_6581737" stroke="#fffdf5" fill="#fffdf5" d="M620.016,647.248c0.251-0.161,0.504-0.315,0.758-0.472C620.52,646.932,620.267,647.088,620.016,647.248z"></path>
            <path id="body_1__RNDID_6581737" stroke="#fffdf5" fill="#fffdf5" d="M617.019,649.286c0.62-0.445,1.247-0.876,1.876-1.3C618.265,648.408,617.639,648.841,617.019,649.286z"></path>
            <path id="body_2__RNDID_6581737" stroke="#fffdf5" fill="#fffdf5" d="M882.354,731.412c0.303-7.655,0.604-15.313,0.906-22.97c2.594-16.183,1.896-46.09-0.604-61.958			c-2.479-15.733-1.06-31.506-5.741-43.221c-2.956-7.396-31.203-30.653-39.582-33.245c-15.683-4.854-33.625-3.797-48.344-9.067			c-7.542-2.701-12.728-9.558-20.314-12.692c1.319,2.252-0.662,5.778-2.466,9.141c-0.003-0.001-0.005-0.001-0.008-0.002			c14.746,5.186,21.574,19.678,27.32,33.173c1.993,4.682,2.736,9.71,6.043,12.996c0.061,0.181,0.121,0.362,0.182,0.544			c0.409,0.053,0.795,0.121,0.754,0.077c3.46,2.323,7.077,4.909,11.167,8.812c-4.333-4-10.667-4.667-18-4S780,612.333,770,616.333			s-16.847,8.863-23,14.333c-6,5.333-6.334,6-12,16L732,643l0.062-2.349c-0.06,0.03-0.12,0.06-0.18,0.09			c-1.6-2.449-11.49-13.958-16.373-18.627c0.358,0.342,0.742,0.721,1.148,1.13c-5.956,3.6-13.108,8.013-16.158,10.256			c-5.667,4.167-21.333,13.833-28.166,18.667s-24,15.333-26.5,15.333s-8.5-4.333-14.833-8.5c-3.753-2.47-9.256-6.224-13.989-9.708			c-10.446,7.507-19.513,18.226-30.58,25.178c0.081,0.832,0.083,1.491-0.056,1.78c-0.625,1.292-4.708,3.083-4.708,3.083s0-0.333-4-9			s-9-10-14-16.333S551,641.667,542.333,634.333c-8.458-7.157-14.333-8.333-16-8.667s-4.042-0.75-13.708-0.417l3-3.5			c0,0,1.083-0.708,2.208-0.792c0.017-0.002,0.038-0.003,0.054-0.005c9.229-13.115,21.53-23.46,33.913-33.406			c4.512-3.623,7.212-8.513,11.654-12.015c-0.001,0-0.002,0.001-0.003,0.002c-2.007-5.091-4.069-10.494-5.785-14.035			c-2.667-5.5-8.167-19.833-12-27.167c-2.453-4.692-3.815-6.107-5.394-7.087c-2.1,0.657-4.199,1.313-6.299,1.969			c-2.921,1.612-5.842,3.225-8.763,4.836c-12.802,2.95-27.52-3.196-39.279,0.907c-14.089,4.916-38.792,17.837-47.136,28.41			c-4.632,5.868-8.562,13.095-11.481,20.552c-0.907,3.526-1.813,7.053-2.72,10.578c-7.066,18.008-14.447,36.998-19.64,57.425			c-4.952,19.479-6.559,40.062-9.971,61.052c-2.336,14.368-0.045,30.654-2.72,44.127c-6.114,30.794-13.38,58.85-19.338,88.556			c-0.842,4.197,0.949,7.502,1.511,10.275c0.101,4.433,0.202,8.866,0.303,13.299c1.646,9.679,3.806,17.301,6.949,24.783			c2.316,7.556,4.633,15.112,6.949,22.668c3.825,8.896,13.017,16.417,20.244,22.063c5.081,3.969,14.216,10.028,23.87,6.347			c5.468-2.086,8.785-6.901,12.992-10.276c8.716-6.99,18.149-14.513,25.078-23.272c3.626-4.936,7.253-9.873,10.878-14.809			c0-0.202,0-0.403,0-0.604c2.622,3.593,1.559,11.979,2.417,16.925c1.511,14.103,3.021,28.21,4.532,42.313			c4.463,25.166,8.144,65.521,3.929,93.693c0.101,8.864,0.201,17.731,0.302,26.597c-0.973,5.981-2.422,11.465-2.417,18.437			c0.806,6.548,1.611,13.097,2.417,19.646c-0.201,4.734-0.403,9.47-0.604,14.205c-0.039,19.562,0.363,39.343-5.741,52.286			c0.129,0.387,0.258,0.773,0.387,1.159c0.08-1.702,0.822-3.532,0.822-3.532c0.213-1.442,0.671-2.026,1.511-2.418			c20.18-4.285,45.678,0.365,67.682-3.022c5.035-0.101,10.072-0.201,15.107-0.302c15.106-0.504,30.217-1.008,45.323-1.512			c5.74,0,11.481,0,17.222,0c17.725-0.101,35.454-0.201,53.179-0.302c5.539,0,11.08,0,16.618,0			c20.646,1.209,41.297,2.418,61.941,3.627c24.371,0.504,48.749,1.008,73.12,1.511c11.062,0.001,21.986,2.242,27.103-3.731			l0.998,5.198c-2.171-19.468-8.426-39.212-12.087-57.728c0.504-5.238,1.008-10.478,1.511-15.716			c-1.396-8.131-4.666-14.862-6.345-23.574c-0.402-7.354-0.806-14.71-1.209-22.063c-2.186-12.999-2.13-27.213-5.438-39.291			c-2.739-10.001-6.639-19.365-11.481-27.504c-5.862-9.852-13.972-19.824-15.107-34.152c21.002-5.431,27.221-15.519,37.769-31.13			c9.064-13.416,20.729-22.571,25.078-41.104c3.707-15.79,2.85-37.197,0.303-53.496c-0.101-8.159-0.201-16.321-0.303-24.481			c-1.467-9.115-0.523-29.332,0.907-38.384C881.548,755.996,881.951,743.702,882.354,731.412z"></path>
            <path id="body_3__RNDID_6581737" stroke="#fffdf5" fill="#fffdf5" d="M544.953,629.72c15.449,11.822,37.539,33.201,41.293,44.872			C582.512,662.982,560.547,641.468,544.953,629.72z"></path>
            <path id="body_4__RNDID_6581737" stroke="#fffdf5" fill="#fffdf5" d="M759.917,615.32c-13.395,6.832-24.382,16.043-27.43,25.119			C735.856,631.763,746.715,622.375,759.917,615.32z"></path>
            <path id="body_5__RNDID_6581737" stroke="#fffdf5" fill="#fffdf5" d="M767.879,547.96c0.266,0.098,0.534,0.191,0.794,0.298C768.413,548.151,768.145,548.058,767.879,547.96z"></path>
            <path id="body_6__RNDID_6581737" stroke="#fffdf5" fill="#fffdf5" d="M766.256,547.429c0.257,0.073,0.513,0.147,0.764,0.229C766.769,547.576,766.513,547.501,766.256,547.429z"></path>
            <path id="body_7__RNDID_6581737" stroke="#fffdf5" fill="#fffdf5" d="M759.681,555.812c0.589,0.084,1.167,0.183,1.734,0.292C760.848,555.995,760.27,555.897,759.681,555.812z"></path>
            <path id="body_8__RNDID_6581737" stroke="#fffdf5" fill="#fffdf5" d="M764.537,547.018c0.218,0.042,0.431,0.093,0.646,0.141C764.968,547.111,764.756,547.06,764.537,547.018z"></path>
            <path id="body_9__RNDID_6581737" stroke="#fffdf5" fill="#fffdf5" d="M564.638,574.666c0.019-0.013,0.036-0.026,0.055-0.039C564.674,574.639,564.657,574.653,564.638,574.666z"></path>
            <path id="body_10__RNDID_6581737" stroke="#fffdf5" fill="#fffdf5" d="M715.492,622.097c-0.17-0.162-0.334-0.317-0.491-0.462C715.158,621.78,715.322,621.935,715.492,622.097z"></path>
            <path id="body_11__RNDID_6581737" stroke="#fffdf5" fill="#fffdf5" d="M714.932,621.572c-0.139-0.127-0.275-0.251-0.403-0.363C714.657,621.322,714.793,621.445,714.932,621.572z			"></path>
            <path id="body_12__RNDID_6581737" stroke="#fffdf5" fill="#fffdf5" d="M763.067,556.466c-0.046-0.011-0.094-0.02-0.141-0.031C762.974,556.446,763.021,556.455,763.067,556.466z"></path>
            <path id="body_13__RNDID_6581737" stroke="#fffdf5" fill="#fffdf5" d="M567.215,573.192c0.089-0.042,0.17-0.09,0.261-0.131C567.386,573.102,567.304,573.149,567.215,573.192z"></path>
            <path id="body_14__RNDID_6581737" stroke="#fffdf5" fill="#fffdf5" d="M714.434,621.127c-0.113-0.099-0.227-0.196-0.33-0.281C714.208,620.932,714.319,621.028,714.434,621.127z"></path>
            <path id="body_15__RNDID_6581737" stroke="#fffdf5" fill="#fffdf5" d="M713.974,620.744c-0.084-0.067-0.169-0.136-0.244-0.192C713.805,620.608,713.89,620.677,713.974,620.744z"></path>
            <path id="body_16__RNDID_6581737" stroke="#fffdf5" fill="#fffdf5" d="M526.394,621.01c1.551,0.131,3.093,0.332,4.494,0.608C529.47,621.29,527.954,621.09,526.394,621.01z"></path>
            <path id="body_17__RNDID_6581737" stroke="#fffdf5" fill="#fffdf5" d="M565.874,573.893c0.054-0.032,0.104-0.066,0.16-0.097C565.979,573.827,565.928,573.861,565.874,573.893z"></path>
            <path id="body_18__RNDID_6581737" stroke="#fffdf5" fill="#fffdf5" d="M713.563,620.437c-0.052-0.035-0.107-0.077-0.154-0.106C713.456,620.36,713.512,620.401,713.563,620.437z"></path>
        </g>
    </g>
    <g data-layer="body" id="body_mask_RNDID_6581737" class="layer-mask">
        <g>
            <defs>
                <path id="body_0__RNDID_6581737__RNDID_6581737" stroke="#fffdf5" d="M620.016,647.248c0.251-0.161,0.504-0.315,0.758-0.472C620.52,646.932,620.267,647.088,620.016,647.248z"></path>
            </defs>
            <clipPath id="body_0__RNDID_6581737_0_RNDID_6581737">
                <use xlink:href="#body_0__RNDID_6581737" overflow="visible"></use>
            </clipPath>
            <image class="melierung unmotted" overflow="visible" clip-path="url(#body_0__RNDID_6581737_0_RNDID_6581737)"
                                                width="1300" height="1500" xlink:href="https://s3.eu-central-1.amazonaws.com/heydorn/basics/melierung_ganzkoerper.jpg"></image>
        </g>
        <g>
            <defs>
                <path id="body_1__RNDID_6581737__RNDID_6581737" stroke="#fffdf5" d="M617.019,649.286c0.62-0.445,1.247-0.876,1.876-1.3C618.265,648.408,617.639,648.841,617.019,649.286z"></path>
            </defs>
            <clipPath id="body_1__RNDID_6581737_0_RNDID_6581737">
                <use xlink:href="#body_1__RNDID_6581737" overflow="visible"></use>
            </clipPath>
            <image class="melierung unmotted" overflow="visible" clip-path="url(#body_1__RNDID_6581737_0_RNDID_6581737)"
                                                width="1300" height="1500" xlink:href="https://s3.eu-central-1.amazonaws.com/heydorn/basics/melierung_ganzkoerper.jpg"></image>
        </g>
        <g>
            <defs>
                <path id="body_2__RNDID_6581737__RNDID_6581737" stroke="#fffdf5" d="M882.354,731.412c0.303-7.655,0.604-15.313,0.906-22.97c2.594-16.183,1.896-46.09-0.604-61.958   c-2.479-15.733-1.06-31.506-5.741-43.221c-2.956-7.396-31.203-30.653-39.582-33.245c-15.683-4.854-33.625-3.797-48.344-9.067   c-7.542-2.701-12.728-9.558-20.314-12.692c1.319,2.252-0.662,5.778-2.466,9.141c-0.003-0.001-0.005-0.001-0.008-0.002   c14.746,5.186,21.574,19.678,27.32,33.173c1.993,4.682,2.736,9.71,6.043,12.996c0.061,0.181,0.121,0.362,0.182,0.544   c0.409,0.053,0.795,0.121,0.754,0.077c3.46,2.323,7.077,4.909,11.167,8.812c-4.333-4-10.667-4.667-18-4S780,612.333,770,616.333   s-16.847,8.863-23,14.333c-6,5.333-6.334,6-12,16L732,643l0.062-2.349c-0.06,0.03-0.12,0.06-0.18,0.09   c-1.6-2.449-11.49-13.958-16.373-18.627c0.358,0.342,0.742,0.721,1.148,1.13c-5.956,3.6-13.108,8.013-16.158,10.256   c-5.667,4.167-21.333,13.833-28.166,18.667s-24,15.333-26.5,15.333s-8.5-4.333-14.833-8.5c-3.753-2.47-9.256-6.224-13.989-9.708   c-10.446,7.507-19.513,18.226-30.58,25.178c0.081,0.832,0.083,1.491-0.056,1.78c-0.625,1.292-4.708,3.083-4.708,3.083s0-0.333-4-9   s-9-10-14-16.333S551,641.667,542.333,634.333c-8.458-7.157-14.333-8.333-16-8.667s-4.042-0.75-13.708-0.417l3-3.5   c0,0,1.083-0.708,2.208-0.792c0.017-0.002,0.038-0.003,0.054-0.005c9.229-13.115,21.53-23.46,33.913-33.406   c4.512-3.623,7.212-8.513,11.654-12.015c-0.001,0-0.002,0.001-0.003,0.002c-2.007-5.091-4.069-10.494-5.785-14.035   c-2.667-5.5-8.167-19.833-12-27.167c-2.453-4.692-3.815-6.107-5.394-7.087c-2.1,0.657-4.199,1.313-6.299,1.969   c-2.921,1.612-5.842,3.225-8.763,4.836c-12.802,2.95-27.52-3.196-39.279,0.907c-14.089,4.916-38.792,17.837-47.136,28.41   c-4.632,5.868-8.562,13.095-11.481,20.552c-0.907,3.526-1.813,7.053-2.72,10.578c-7.066,18.008-14.447,36.998-19.64,57.425   c-4.952,19.479-6.559,40.062-9.971,61.052c-2.336,14.368-0.045,30.654-2.72,44.127c-6.114,30.794-13.38,58.85-19.338,88.556   c-0.842,4.197,0.949,7.502,1.511,10.275c0.101,4.433,0.202,8.866,0.303,13.299c1.646,9.679,3.806,17.301,6.949,24.783   c2.316,7.556,4.633,15.112,6.949,22.668c3.825,8.896,13.017,16.417,20.244,22.063c5.081,3.969,14.216,10.028,23.87,6.347   c5.468-2.086,8.785-6.901,12.992-10.276c8.716-6.99,18.149-14.513,25.078-23.272c3.626-4.936,7.253-9.873,10.878-14.809   c0-0.202,0-0.403,0-0.604c2.622,3.593,1.559,11.979,2.417,16.925c1.511,14.103,3.021,28.21,4.532,42.313   c4.463,25.166,8.144,65.521,3.929,93.693c0.101,8.864,0.201,17.731,0.302,26.597c-0.973,5.981-2.422,11.465-2.417,18.437   c0.806,6.548,1.611,13.097,2.417,19.646c-0.201,4.734-0.403,9.47-0.604,14.205c-0.039,19.562,0.363,39.343-5.741,52.286   c0.129,0.387,0.258,0.773,0.387,1.159c0.08-1.702,0.822-3.532,0.822-3.532c0.213-1.442,0.671-2.026,1.511-2.418   c20.18-4.285,45.678,0.365,67.682-3.022c5.035-0.101,10.072-0.201,15.107-0.302c15.106-0.504,30.217-1.008,45.323-1.512   c5.74,0,11.481,0,17.222,0c17.725-0.101,35.454-0.201,53.179-0.302c5.539,0,11.08,0,16.618,0   c20.646,1.209,41.297,2.418,61.941,3.627c24.371,0.504,48.749,1.008,73.12,1.511c11.062,0.001,21.986,2.242,27.103-3.731   l0.998,5.198c-2.171-19.468-8.426-39.212-12.087-57.728c0.504-5.238,1.008-10.478,1.511-15.716   c-1.396-8.131-4.666-14.862-6.345-23.574c-0.402-7.354-0.806-14.71-1.209-22.063c-2.186-12.999-2.13-27.213-5.438-39.291   c-2.739-10.001-6.639-19.365-11.481-27.504c-5.862-9.852-13.972-19.824-15.107-34.152c21.002-5.431,27.221-15.519,37.769-31.13   c9.064-13.416,20.729-22.571,25.078-41.104c3.707-15.79,2.85-37.197,0.303-53.496c-0.101-8.159-0.201-16.321-0.303-24.481   c-1.467-9.115-0.523-29.332,0.907-38.384C881.548,755.996,881.951,743.702,882.354,731.412z"></path>
            </defs>
            <clipPath id="body_2__RNDID_6581737_0_RNDID_6581737">
                <use xlink:href="#body_2__RNDID_6581737" overflow="visible"></use>
            </clipPath>
            <image class="melierung unmotted" overflow="visible" clip-path="url(#body_2__RNDID_6581737_0_RNDID_6581737)"
                                                width="1300" height="1500" xlink:href="https://s3.eu-central-1.amazonaws.com/heydorn/basics/melierung_ganzkoerper.jpg"></image>
        </g>
        <g>
            <defs>
                <path id="body_3__RNDID_6581737__RNDID_6581737" stroke="#fffdf5" d="M544.953,629.72c15.449,11.822,37.539,33.201,41.293,44.872   C582.512,662.982,560.547,641.468,544.953,629.72z"></path>
            </defs>
            <clipPath id="body_3__RNDID_6581737_0_RNDID_6581737">
                <use xlink:href="#body_3__RNDID_6581737" overflow="visible"></use>
            </clipPath>
            <image class="melierung unmotted" overflow="visible" clip-path="url(#body_3__RNDID_6581737_0_RNDID_6581737)"
                                                width="1300" height="1500" xlink:href="https://s3.eu-central-1.amazonaws.com/heydorn/basics/melierung_ganzkoerper.jpg"></image>
        </g>
        <g>
            <defs>
                <path id="body_4__RNDID_6581737__RNDID_6581737" stroke="#fffdf5" d="M759.917,615.32c-13.395,6.832-24.382,16.043-27.43,25.119   C735.856,631.763,746.715,622.375,759.917,615.32z"></path>
            </defs>
            <clipPath id="body_4__RNDID_6581737_0_RNDID_6581737">
                <use xlink:href="#body_4__RNDID_6581737" overflow="visible"></use>
            </clipPath>
            <image class="melierung unmotted" overflow="visible" clip-path="url(#body_4__RNDID_6581737_0_RNDID_6581737)"
                                                width="1300" height="1500" xlink:href="https://s3.eu-central-1.amazonaws.com/heydorn/basics/melierung_ganzkoerper.jpg"></image>
        </g>
        <g>
            <defs>
                <path id="body_5__RNDID_6581737__RNDID_6581737" stroke="#fffdf5" d="M767.879,547.96c0.266,0.098,0.534,0.191,0.794,0.298C768.413,548.151,768.145,548.058,767.879,547.96z"></path>
            </defs>
            <clipPath id="body_5__RNDID_6581737_0_RNDID_6581737">
                <use xlink:href="#body_5__RNDID_6581737" overflow="visible"></use>
            </clipPath>
            <image class="melierung unmotted" overflow="visible" clip-path="url(#body_5__RNDID_6581737_0_RNDID_6581737)"
                                                width="1300" height="1500" xlink:href="https://s3.eu-central-1.amazonaws.com/heydorn/basics/melierung_ganzkoerper.jpg"></image>
        </g>
        <g>
            <defs>
                <path id="body_6__RNDID_6581737__RNDID_6581737" stroke="#fffdf5" d="M766.256,547.429c0.257,0.073,0.513,0.147,0.764,0.229C766.769,547.576,766.513,547.501,766.256,547.429z"></path>
            </defs>
            <clipPath id="body_6__RNDID_6581737_0_RNDID_6581737">
                <use xlink:href="#body_6__RNDID_6581737" overflow="visible"></use>
            </clipPath>
            <image class="melierung unmotted" overflow="visible" clip-path="url(#body_6__RNDID_6581737_0_RNDID_6581737)"
                                                width="1300" height="1500" xlink:href="https://s3.eu-central-1.amazonaws.com/heydorn/basics/melierung_ganzkoerper.jpg"></image>
        </g>
        <g>
            <defs>
                <path id="body_7__RNDID_6581737__RNDID_6581737" stroke="#fffdf5" d="M759.681,555.812c0.589,0.084,1.167,0.183,1.734,0.292C760.848,555.995,760.27,555.897,759.681,555.812z"></path>
            </defs>
            <clipPath id="body_7__RNDID_6581737_0_RNDID_6581737">
                <use xlink:href="#body_7__RNDID_6581737" overflow="visible"></use>
            </clipPath>
            <image class="melierung unmotted" overflow="visible" clip-path="url(#body_7__RNDID_6581737_0_RNDID_6581737)"
                                                width="1300" height="1500" xlink:href="https://s3.eu-central-1.amazonaws.com/heydorn/basics/melierung_ganzkoerper.jpg"></image>
        </g>
        <g>
            <defs>
                <path id="body_8__RNDID_6581737__RNDID_6581737" stroke="#fffdf5" d="M764.537,547.018c0.218,0.042,0.431,0.093,0.646,0.141C764.968,547.111,764.756,547.06,764.537,547.018z"></path>
            </defs>
            <clipPath id="body_8__RNDID_6581737_0_RNDID_6581737">
                <use xlink:href="#body_8__RNDID_6581737" overflow="visible"></use>
            </clipPath>
            <image class="melierung unmotted" overflow="visible" clip-path="url(#body_8__RNDID_6581737_0_RNDID_6581737)"
                                                width="1300" height="1500" xlink:href="https://s3.eu-central-1.amazonaws.com/heydorn/basics/melierung_ganzkoerper.jpg"></image>
        </g>
        <g>
            <defs>
                <path id="body_9__RNDID_6581737__RNDID_6581737" stroke="#fffdf5" d="M564.638,574.666c0.019-0.013,0.036-0.026,0.055-0.039C564.674,574.639,564.657,574.653,564.638,574.666z"></path>
            </defs>
            <clipPath id="body_9__RNDID_6581737_0_RNDID_6581737">
                <use xlink:href="#body_9__RNDID_6581737" overflow="visible"></use>
            </clipPath>
            <image class="melierung unmotted" overflow="visible" clip-path="url(#body_9__RNDID_6581737_0_RNDID_6581737)"
                                                width="1300" height="1500" xlink:href="https://s3.eu-central-1.amazonaws.com/heydorn/basics/melierung_ganzkoerper.jpg"></image>
        </g>
        <g>
            <defs>
                <path id="body_10__RNDID_6581737__RNDID_6581737" stroke="#fffdf5" d="M715.492,622.097c-0.17-0.162-0.334-0.317-0.491-0.462C715.158,621.78,715.322,621.935,715.492,622.097z"></path>
            </defs>
            <clipPath id="body_10__RNDID_6581737_0_RNDID_6581737">
                <use xlink:href="#body_10__RNDID_6581737" overflow="visible"></use>
            </clipPath>
            <image class="melierung unmotted" overflow="visible" clip-path="url(#body_10__RNDID_6581737_0_RNDID_6581737)"
                                                width="1300" height="1500" xlink:href="https://s3.eu-central-1.amazonaws.com/heydorn/basics/melierung_ganzkoerper.jpg"></image>
        </g>
        <g>
            <defs>
                <path id="body_11__RNDID_6581737__RNDID_6581737" stroke="#fffdf5" d="M714.932,621.572c-0.139-0.127-0.275-0.251-0.403-0.363C714.657,621.322,714.793,621.445,714.932,621.572z   "></path>
            </defs>
            <clipPath id="body_11__RNDID_6581737_0_RNDID_6581737">
                <use xlink:href="#body_11__RNDID_6581737" overflow="visible"></use>
            </clipPath>
            <image class="melierung unmotted" overflow="visible" clip-path="url(#body_11__RNDID_6581737_0_RNDID_6581737)"
                                                width="1300" height="1500" xlink:href="https://s3.eu-central-1.amazonaws.com/heydorn/basics/melierung_ganzkoerper.jpg"></image>
        </g>
        <g>
            <defs>
                <path id="body_12__RNDID_6581737__RNDID_6581737" stroke="#fffdf5" d="M763.067,556.466c-0.046-0.011-0.094-0.02-0.141-0.031C762.974,556.446,763.021,556.455,763.067,556.466z"></path>
            </defs>
            <clipPath id="body_12__RNDID_6581737_0_RNDID_6581737">
                <use xlink:href="#body_12__RNDID_6581737" overflow="visible"></use>
            </clipPath>
            <image class="melierung unmotted" overflow="visible" clip-path="url(#body_12__RNDID_6581737_0_RNDID_6581737)"
                                                width="1300" height="1500" xlink:href="https://s3.eu-central-1.amazonaws.com/heydorn/basics/melierung_ganzkoerper.jpg"></image>
        </g>
        <g>
            <defs>
                <path id="body_13__RNDID_6581737__RNDID_6581737" stroke="#fffdf5" d="M567.215,573.192c0.089-0.042,0.17-0.09,0.261-0.131C567.386,573.102,567.304,573.149,567.215,573.192z"></path>
            </defs>
            <clipPath id="body_13__RNDID_6581737_0_RNDID_6581737">
                <use xlink:href="#body_13__RNDID_6581737" overflow="visible"></use>
            </clipPath>
            <image class="melierung unmotted" overflow="visible" clip-path="url(#body_13__RNDID_6581737_0_RNDID_6581737)"
                                                width="1300" height="1500" xlink:href="https://s3.eu-central-1.amazonaws.com/heydorn/basics/melierung_ganzkoerper.jpg"></image>
        </g>
        <g>
            <defs>
                <path id="body_14__RNDID_6581737__RNDID_6581737" stroke="#fffdf5" d="M714.434,621.127c-0.113-0.099-0.227-0.196-0.33-0.281C714.208,620.932,714.319,621.028,714.434,621.127z"></path>
            </defs>
            <clipPath id="body_14__RNDID_6581737_0_RNDID_6581737">
                <use xlink:href="#body_14__RNDID_6581737" overflow="visible"></use>
            </clipPath>
            <image class="melierung unmotted" overflow="visible" clip-path="url(#body_14__RNDID_6581737_0_RNDID_6581737)"
                                                width="1300" height="1500" xlink:href="https://s3.eu-central-1.amazonaws.com/heydorn/basics/melierung_ganzkoerper.jpg"></image>
        </g>
        <g>
            <defs>
                <path id="body_15__RNDID_6581737__RNDID_6581737" stroke="#fffdf5" d="M713.974,620.744c-0.084-0.067-0.169-0.136-0.244-0.192C713.805,620.608,713.89,620.677,713.974,620.744z"></path>
            </defs>
            <clipPath id="body_15__RNDID_6581737_0_RNDID_6581737">
                <use xlink:href="#body_15__RNDID_6581737" overflow="visible"></use>
            </clipPath>
            <image class="melierung unmotted" overflow="visible" clip-path="url(#body_15__RNDID_6581737_0_RNDID_6581737)"
                                                width="1300" height="1500" xlink:href="https://s3.eu-central-1.amazonaws.com/heydorn/basics/melierung_ganzkoerper.jpg"></image>
        </g>
        <g>
            <defs>
                <path id="body_16__RNDID_6581737__RNDID_6581737" stroke="#fffdf5" d="M526.394,621.01c1.551,0.131,3.093,0.332,4.494,0.608C529.47,621.29,527.954,621.09,526.394,621.01z"></path>
            </defs>
            <clipPath id="body_16__RNDID_6581737_0_RNDID_6581737">
                <use xlink:href="#body_16__RNDID_6581737" overflow="visible"></use>
            </clipPath>
            <image class="melierung unmotted" overflow="visible" clip-path="url(#body_16__RNDID_6581737_0_RNDID_6581737)"
                                                width="1300" height="1500" xlink:href="https://s3.eu-central-1.amazonaws.com/heydorn/basics/melierung_ganzkoerper.jpg"></image>
        </g>
        <g>
            <defs>
                <path id="body_17__RNDID_6581737__RNDID_6581737" stroke="#fffdf5" d="M565.874,573.893c0.054-0.032,0.104-0.066,0.16-0.097C565.979,573.827,565.928,573.861,565.874,573.893z"></path>
            </defs>
            <clipPath id="body_17__RNDID_6581737_0_RNDID_6581737">
                <use xlink:href="#body_17__RNDID_6581737" overflow="visible"></use>
            </clipPath>
            <image class="melierung unmotted" overflow="visible" clip-path="url(#body_17__RNDID_6581737_0_RNDID_6581737)"
                                                width="1300" height="1500" xlink:href="https://s3.eu-central-1.amazonaws.com/heydorn/basics/melierung_ganzkoerper.jpg"></image>
        </g>
        <g>
            <defs>
                <path id="body_18__RNDID_6581737__RNDID_6581737" stroke="#fffdf5" d="M713.563,620.437c-0.052-0.035-0.107-0.077-0.154-0.106C713.456,620.36,713.512,620.401,713.563,620.437z"></path>
            </defs>
            <clipPath id="body_18__RNDID_6581737_0_RNDID_6581737">
                <use xlink:href="#body_18__RNDID_6581737" overflow="visible"></use>
            </clipPath>
            <image class="melierung unmotted" overflow="visible" clip-path="url(#body_18__RNDID_6581737_0_RNDID_6581737)"
                                                width="1300" height="1500" xlink:href="https://s3.eu-central-1.amazonaws.com/heydorn/basics/melierung_ganzkoerper.jpg"></image>
        </g>
    </g>
    <g id="neckline_border">
        <g>
            <path id="neckline_border_0__RNDID_7128390" stroke="#fffdf5" fill="#fffdf5"
                                                d="M716.658,623.244c-1.629-1.642-2.914-2.798-3.509-3.055c-3.36-0.729-14.937,8.403-18.129,10.881			c-4.871,3.779-10.346,5.84-15.41,9.369c-1.472,1.025-3.299,3.997-4.834,4.836c-9.313,5.088-18.514,10.651-29.007,15.716			c-2.972-2.038-6.062-2.449-8.762-3.929c-5.196-2.85-8.865-8.681-14.201-11.485c-1.992,1.102-3.914,2.362-5.796,3.715			c4.733,3.484,10.236,7.238,13.989,9.708c6.333,4.167,12.333,8.5,14.833,8.5s19.667-10.5,26.5-15.333s22.499-14.5,28.166-18.667			C703.55,631.257,710.702,626.844,716.658,623.244z"></path>
            <path id="neckline_border_1__RNDID_7128390" stroke="#fffdf5" fill="#fffdf5"
                                                d="M545.667,534.333c3.833,7.333,9.333,21.667,12,27.167c1.716,3.541,3.778,8.943,5.785,14.035			c1.583-1.249,3.383-2.325,5.571-3.099c-5.337-11.785-10.677-23.575-16.014-35.361c-2.098-4.863-2.967-10.282-9.367-10.881			c-1.123,0.351-2.246,0.702-3.37,1.053C541.852,528.227,543.214,529.641,545.667,534.333z"></path>
            <path id="neckline_border_2__RNDID_7128390" stroke="#fffdf5" fill="#fffdf5"
                                                d="M760.285,547.652c-0.201,0.303-0.403,0.604-0.604,0.907c0.705,0.302,1.41,0.604,2.115,0.906			c-0.705,2.015-1.41,4.03-2.115,6.045c0,0.101,0,0.201,0,0.302c2.338,0.335,4.506,0.876,6.528,1.587			c1.804-3.363,3.785-6.889,2.466-9.141c-1.83-0.756-3.796-1.301-5.973-1.513C761.896,547.048,761.091,547.351,760.285,547.652z"></path>
        </g>
    </g>
    <g data-layer="neckline_border" id="neckline_border_mask_RNDID_7128390" class="layer-mask">
        <g>
            <defs>
                <path id="neckline_border_0__RNDID_7128390__RNDID_7128390" stroke="#fffdf5"
                                                    d="M716.658,623.244c-1.629-1.642-2.914-2.798-3.509-3.055c-3.36-0.729-14.937,8.403-18.129,10.881   c-4.871,3.779-10.346,5.84-15.41,9.369c-1.472,1.025-3.299,3.997-4.834,4.836c-9.313,5.088-18.514,10.651-29.007,15.716   c-2.972-2.038-6.062-2.449-8.762-3.929c-5.196-2.85-8.865-8.681-14.201-11.485c-1.992,1.102-3.914,2.362-5.796,3.715   c4.733,3.484,10.236,7.238,13.989,9.708c6.333,4.167,12.333,8.5,14.833,8.5s19.667-10.5,26.5-15.333s22.499-14.5,28.166-18.667   C703.55,631.257,710.702,626.844,716.658,623.244z"></path>
            </defs>
            <clipPath id="neckline_border_0__RNDID_7128390_0_RNDID_7128390">
                <use xlink:href="#neckline_border_0__RNDID_7128390" overflow="visible"></use>
            </clipPath>
            <image class="melierung unmotted" overflow="visible" clip-path="url(#neckline_border_0__RNDID_7128390_0_RNDID_7128390)"
                                                width="1300" height="1500" xlink:href="https://s3.eu-central-1.amazonaws.com/heydorn/basics/melierung_ganzkoerper.jpg"></image>
        </g>
        <g>
            <defs>
                <path id="neckline_border_1__RNDID_7128390__RNDID_7128390" stroke="#fffdf5"
                                                    d="M545.667,534.333c3.833,7.333,9.333,21.667,12,27.167c1.716,3.541,3.778,8.943,5.785,14.035   c1.583-1.249,3.383-2.325,5.571-3.099c-5.337-11.785-10.677-23.575-16.014-35.361c-2.098-4.863-2.967-10.282-9.367-10.881   c-1.123,0.351-2.246,0.702-3.37,1.053C541.852,528.227,543.214,529.641,545.667,534.333z"></path>
            </defs>
            <clipPath id="neckline_border_1__RNDID_7128390_0_RNDID_7128390">
                <use xlink:href="#neckline_border_1__RNDID_7128390" overflow="visible"></use>
            </clipPath>
            <image class="melierung unmotted" overflow="visible" clip-path="url(#neckline_border_1__RNDID_7128390_0_RNDID_7128390)"
                                                width="1300" height="1500" xlink:href="https://s3.eu-central-1.amazonaws.com/heydorn/basics/melierung_ganzkoerper.jpg"></image>
        </g>
        <g>
            <defs>
                <path id="neckline_border_2__RNDID_7128390__RNDID_7128390" stroke="#fffdf5"
                                                    d="M760.285,547.652c-0.201,0.303-0.403,0.604-0.604,0.907c0.705,0.302,1.41,0.604,2.115,0.906   c-0.705,2.015-1.41,4.03-2.115,6.045c0,0.101,0,0.201,0,0.302c2.338,0.335,4.506,0.876,6.528,1.587   c1.804-3.363,3.785-6.889,2.466-9.141c-1.83-0.756-3.796-1.301-5.973-1.513C761.896,547.048,761.091,547.351,760.285,547.652z"></path>
            </defs>
            <clipPath id="neckline_border_2__RNDID_7128390_0_RNDID_7128390">
                <use xlink:href="#neckline_border_2__RNDID_7128390" overflow="visible"></use>
            </clipPath>
            <image class="melierung unmotted" overflow="visible" clip-path="url(#neckline_border_2__RNDID_7128390_0_RNDID_7128390)"
                                                width="1300" height="1500" xlink:href="https://s3.eu-central-1.amazonaws.com/heydorn/basics/melierung_ganzkoerper.jpg"></image>
        </g>
    </g>
    <g id="hem_border">
        <path id="hem_border_0__RNDID_8277717" stroke="#fffdf5" fill="#fffdf5" d="M487.745,1177.86c0.213-1.442,0.671-2.026,1.511-2.418c20.18-4.285,45.678,0.365,67.682-3.022		c5.035-0.101,10.072-0.201,15.107-0.302c15.106-0.504,30.217-1.008,45.323-1.512c5.74,0,11.481,0,17.222,0		c17.725-0.101,35.454-0.201,53.179-0.302c5.539,0,11.08,0,16.618,0c20.646,1.209,41.297,2.418,61.941,3.627		c24.371,0.504,48.749,1.008,73.12,1.511c11.062,0.001,21.986,2.242,27.103-3.731l0.998,5.198		c-5.116,5.974-17.039,4.534-28.101,4.533c-24.371-0.503-48.749-1.007-73.12-1.511c-20.645-1.209-41.296-2.418-61.941-3.627		c-5.538,0-11.079,0-16.618,0c-17.725,0.101-35.454,0.201-53.179,0.302c-5.74,0-11.481,0-17.222,0		c-15.106,0.504-30.217,1.008-45.323,1.512c-5.035,0.101-10.072,0.201-15.107,0.302c-22.004,3.388-47.502-1.263-67.682,3.022		c-0.302,0.907-0.604,1.813-0.906,2.721c-0.201-0.101-0.266-0.079-0.604-0.303C485.875,1182.459,487.745,1177.86,487.745,1177.86z"></path>
    </g>
    <g data-layer="hem_border" id="hem_border_mask_RNDID_8277717" class="layer-mask">
        <g>
            <defs>
                <path id="hem_border_0__RNDID_8277717__RNDID_8277717" stroke="#fffdf5"
                                                    d="M487.745,1177.86c0.213-1.442,0.671-2.026,1.511-2.418c20.18-4.285,45.678,0.365,67.682-3.022  c5.035-0.101,10.072-0.201,15.107-0.302c15.106-0.504,30.217-1.008,45.323-1.512c5.74,0,11.481,0,17.222,0  c17.725-0.101,35.454-0.201,53.179-0.302c5.539,0,11.08,0,16.618,0c20.646,1.209,41.297,2.418,61.941,3.627  c24.371,0.504,48.749,1.008,73.12,1.511c11.062,0.001,21.986,2.242,27.103-3.731l0.998,5.198  c-5.116,5.974-17.039,4.534-28.101,4.533c-24.371-0.503-48.749-1.007-73.12-1.511c-20.645-1.209-41.296-2.418-61.941-3.627  c-5.538,0-11.079,0-16.618,0c-17.725,0.101-35.454,0.201-53.179,0.302c-5.74,0-11.481,0-17.222,0  c-15.106,0.504-30.217,1.008-45.323,1.512c-5.035,0.101-10.072,0.201-15.107,0.302c-22.004,3.388-47.502-1.263-67.682,3.022  c-0.302,0.907-0.604,1.813-0.906,2.721c-0.201-0.101-0.266-0.079-0.604-0.303C485.875,1182.459,487.745,1177.86,487.745,1177.86z"></path>
            </defs>
            <clipPath id="hem_border_0__RNDID_8277717_0_RNDID_8277717">
                <use xlink:href="#hem_border_0__RNDID_8277717" overflow="visible"></use>
            </clipPath>
            <image class="melierung unmotted" overflow="visible" clip-path="url(#hem_border_0__RNDID_8277717_0_RNDID_8277717)"
                                                width="1300" height="1500" xlink:href="https://s3.eu-central-1.amazonaws.com/heydorn/basics/melierung_ganzkoerper.jpg"></image>
        </g>
    </g>
    <g id="cuff_border">
        <path id="cuff_border_0__RNDID_6060394" stroke="#fffdf5" fill="#fffdf5" d="M534.958,622.917c-3.708-2.042-13.208-2.375-17.125-1.958c-1.125,0.083-2.208,0.792-2.208,0.792l-3,3.5		c9.667-0.333,12.042,0.083,13.708,0.417s7.542,1.51,16,8.667c8.667,7.333,16.333,13.333,21.333,19.667s10,7.667,14,16.333s4,9,4,9		s4.083-1.792,4.708-3.083c0.14-0.289,0.137-0.948,0.056-1.78c-0.062,0.04-0.123,0.083-0.185,0.122		C581.549,659.989,548.135,630.172,534.958,622.917z"></path>
        <path id="cuff_border_1__RNDID_6060394" stroke="#fffdf5" fill="#fffdf5" d="M793.667,609c7.333-0.667,13.667,0,18,4c-4.09-3.904-7.707-6.49-11.167-8.812		c0.087,0.093-1.769-0.323-1.667-0.021c-25.354,0.042-59.833,19.5-66.346,36.273c-0.142,0.071-0.283,0.141-0.425,0.212L732,643		l3,3.667c5.666-10,6-10.667,12-16c6.153-5.47,13-10.333,23-14.333S786.334,609.667,793.667,609z"></path>
    </g>
    <g data-layer="cuff_border" id="cuff_border_mask_RNDID_6060394" class="layer-mask">
        <g>
            <defs>
                <path id="cuff_border_0__RNDID_6060394__RNDID_6060394" stroke="#fffdf5"
                                                    d="M534.958,622.917c-3.708-2.042-13.208-2.375-17.125-1.958c-1.125,0.083-2.208,0.792-2.208,0.792l-3,3.5  c9.667-0.333,12.042,0.083,13.708,0.417s7.542,1.51,16,8.667c8.667,7.333,16.333,13.333,21.333,19.667s10,7.667,14,16.333s4,9,4,9  s4.083-1.792,4.708-3.083c0.14-0.289,0.137-0.948,0.056-1.78c-0.062,0.04-0.123,0.083-0.185,0.122  C581.549,659.989,548.135,630.172,534.958,622.917z"></path>
            </defs>
            <clipPath id="cuff_border_0__RNDID_6060394_0_RNDID_6060394">
                <use xlink:href="#cuff_border_0__RNDID_6060394" overflow="visible"></use>
            </clipPath>
            <image class="melierung unmotted" overflow="visible" clip-path="url(#cuff_border_0__RNDID_6060394_0_RNDID_6060394)"
                                                width="1300" height="1500" xlink:href="https://s3.eu-central-1.amazonaws.com/heydorn/basics/melierung_ganzkoerper.jpg"></image>
        </g>
        <g>
            <defs>
                <path id="cuff_border_1__RNDID_6060394__RNDID_6060394" stroke="#fffdf5"
                                                    d="M793.667,609c7.333-0.667,13.667,0,18,4c-4.09-3.904-7.707-6.49-11.167-8.812  c0.087,0.093-1.769-0.323-1.667-0.021c-25.354,0.042-59.833,19.5-66.346,36.273c-0.142,0.071-0.283,0.141-0.425,0.212L732,643  l3,3.667c5.666-10,6-10.667,12-16c6.153-5.47,13-10.333,23-14.333S786.334,609.667,793.667,609z"></path>
            </defs>
            <clipPath id="cuff_border_1__RNDID_6060394_0_RNDID_6060394">
                <use xlink:href="#cuff_border_1__RNDID_6060394" overflow="visible"></use>
            </clipPath>
            <image class="melierung unmotted" overflow="visible" clip-path="url(#cuff_border_1__RNDID_6060394_0_RNDID_6060394)"
                                                width="1300" height="1500" xlink:href="https://s3.eu-central-1.amazonaws.com/heydorn/basics/melierung_ganzkoerper.jpg"></image>
        </g>
    </g>
    <g id="Produktbild" style="mix-blend-mode:multiply">
        <g>
            <!--<clipPath id="SVGID_3_produktbild_"><path id="SVGID_produktbild_"  fill="none" d="M882.354,731.412c0.303-7.655,0.604-15.313,0.906-22.97c2.594-16.183,1.896-46.09-0.604-61.958  c-2.479-15.733-1.06-31.506-5.741-43.221c-2.956-7.396-31.203-30.653-39.582-33.245c-15.683-4.854-33.625-3.797-48.344-9.067  c-9.361-3.353-15.086-13.117-26.287-14.205c-0.806,0.302-1.611,0.604-2.417,0.906c-0.201,0.303-0.403,0.604-0.604,0.907  c0.705,0.302,1.41,0.604,2.115,0.906c-0.705,2.015-1.41,4.03-2.115,6.045c0,0.101,0,0.201,0,0.302  c19.381,2.775,27.308,19.414,33.841,34.758c1.993,4.682,2.736,9.71,6.043,12.996c0.101,0.302,0.201,0.604,0.303,0.906  c-25.354,0.042-61.438,18.274-67.38,35.967c-0.201,0.101-0.403,0.201-0.604,0.302c-1.953-2.989-16.263-19.485-18.733-20.552  c-3.36-0.729-14.937,8.403-18.129,10.881c-4.871,3.779-10.346,5.84-15.41,9.369c-1.472,1.025-3.299,3.997-4.834,4.836  c-9.313,5.088-18.514,10.651-29.007,15.716c-2.972-2.038-6.062-2.449-8.762-3.929c-5.196-2.85-8.865-8.681-14.201-11.485  c-13.111,7.252-23.411,20.821-36.561,29.015c-4.697-14.603-38.246-44.892-51.668-51.683c-4.536-2.295-11.442-2.365-17.223-1.209  c9.284-13.475,21.826-24.018,34.445-34.152c6.119-4.913,8.896-12.168,17.223-15.112c-5.337-11.785-10.677-23.575-16.014-35.361  c-2.098-4.863-2.967-10.282-9.367-10.881c-3.223,1.008-6.445,2.016-9.668,3.022c-2.921,1.612-5.842,3.225-8.763,4.836  c-12.802,2.95-27.52-3.196-39.279,0.907c-14.089,4.916-38.792,17.837-47.136,28.41c-4.632,5.868-8.562,13.095-11.481,20.552  c-0.907,3.526-1.813,7.053-2.72,10.578c-7.066,18.008-14.447,36.998-19.64,57.425c-4.952,19.479-6.559,40.062-9.971,61.052  c-2.336,14.368-0.045,30.654-2.72,44.127c-6.114,30.794-13.38,58.85-19.338,88.556c-0.842,4.197,0.949,7.502,1.511,10.275  c0.101,4.433,0.202,8.866,0.303,13.299c1.646,9.679,3.806,17.301,6.949,24.783c2.316,7.556,4.633,15.112,6.949,22.668  c3.825,8.896,13.017,16.417,20.244,22.063c5.081,3.969,14.216,10.028,23.87,6.347c5.468-2.086,8.785-6.901,12.992-10.276  c8.716-6.99,18.149-14.513,25.078-23.272c3.626-4.936,7.253-9.873,10.878-14.809c0-0.202,0-0.403,0-0.604  c2.622,3.593,1.559,11.979,2.417,16.925c1.511,14.103,3.021,28.21,4.532,42.313c4.463,25.166,8.144,65.521,3.929,93.693  c0.101,8.864,0.201,17.731,0.302,26.597c-0.973,5.981-2.422,11.465-2.417,18.437c0.806,6.548,1.611,13.097,2.417,19.646  c-0.201,4.734-0.403,9.47-0.604,14.205c-0.039,19.562,0.363,39.343-5.741,52.286c0.403,1.209,0.807,2.418,1.209,3.627  c0.201,0.101,0.403,0.202,0.604,0.303c0.302-0.907,0.604-1.813,0.906-2.721c20.18-4.285,45.678,0.365,67.682-3.022  c5.035-0.101,10.072-0.201,15.107-0.302c15.106-0.504,30.217-1.008,45.323-1.512c5.74,0,11.481,0,17.222,0  c17.725-0.101,35.454-0.201,53.179-0.302c5.539,0,11.08,0,16.618,0c20.646,1.209,41.297,2.418,61.941,3.627  c24.371,0.504,48.749,1.008,73.12,1.511c11.062,0.001,22.984,1.44,28.101-4.533c-2.171-19.468-8.426-39.212-12.087-57.728  c0.504-5.238,1.008-10.478,1.511-15.716c-1.396-8.131-4.666-14.862-6.345-23.574c-0.402-7.354-0.806-14.71-1.209-22.063  c-2.186-12.999-2.13-27.213-5.438-39.291c-2.739-10.001-6.639-19.365-11.481-27.504c-5.862-9.852-13.972-19.824-15.107-34.152  c21.002-5.431,27.221-15.519,37.769-31.13c9.064-13.416,20.729-22.571,25.078-41.104c3.707-15.79,2.85-37.197,0.303-53.496  c-0.101-8.159-0.201-16.321-0.303-24.481c-1.467-9.115-0.523-29.332,0.907-38.384C881.548,755.996,881.951,743.702,882.354,731.412  z"></path></clipPath>-->
            <!--<image overflow="visible" clip-path="url(#SVGID_3_produktbild_)" width="1300" height="1500" xlink:href="https://s3.eu-central-1.amazonaws.com/heydorn/basics/dobdob_004_round-neck_m__b21_0053.jpg"></image>-->
            <image overflow="visible" width="1300" height="1500" xlink:href="https://s3.eu-central-1.amazonaws.com/heydorn/basics/dob004/3.jpg"></image>
        </g>
    </g>
</svg>