<?xml version="1.0" encoding="UTF-8"?>
<!DOCTYPE svg PUBLIC "-//W3C//DTD SVG 1.1//EN" "http://www.w3.org/Graphics/SVG/1.1/DTD/svg11.dtd">
<svg version="1.1" id="Ebene_1"
    xmlns="http://www.w3.org/2000/svg"
    xmlns:xlink="http://www.w3.org/1999/xlink"
                                    x="0px" y="0px" viewBox="0 0 1300 1500" style="cursor: pointer;" xml:space="preserve">
    <g id="body">
        <g>
            <path id="body_0__RNDID_7895849" stroke="#fffdf5" fill="#fffdf5" d="M506.8,761.6c-0.2,0-0.3-0.1-0.5-0.1C506.4,761.6,506.6,761.6,506.8,761.6z"></path>
            <path id="body_1__RNDID_7895849" stroke="#fffdf5" fill="#fffdf5" d="M516.9,298c0.2-0.1,0.4-0.2,0.6-0.3C517.3,297.8,517.1,297.9,516.9,298z"></path>
            <path id="body_2__RNDID_7895849" stroke="#fffdf5" fill="#fffdf5" d="M734.9,750l-0.3,2.3C734.7,751.5,734.8,750.8,734.9,750z"></path>
            <path id="body_3__RNDID_7895849" stroke="#fffdf5" fill="#fffdf5" d="M752.7,749.2c-0.4,1.9-1.7,3.6-1.9,5.6c5,4,10.8,7.4,12.9,8.5c2.3,1.2,9.7,2.5,13,1.3			c2.9-1,11.8-1.7,18.7-4.2c-0.1-2.3-1.1-4.6-0.3-8.2c1.7-7.2,6.8-16.1,6.3-24.2c-1.8-1.2-3.7-2-6.6-2.1c-1.1-4.3,0.5-10.1,1.2-13.9			c2.6-13.5-2.6-22.3-10.9-26.3c-1.7-15.4-3.4-30.8-5.1-46.2c-1.3-14-2.6-28-3.9-42c-4.8-24.1-8.9-48.9-13.9-71.9			c-0.2-3.9-0.4-7.9-0.6-11.8c-2.1-10.1-4.8-21.1-6.9-31.7c-0.9-8.1-1.8-16.1-2.7-24.2c-0.4-8.6-0.8-17.1-1.2-25.7			c-0.5-10.9-1-21.8-1.5-32.6c-2.8-18.5-3-36.8-7.3-52.6c-2.9-10.8-4.4-20.3-10.3-27.8c-7.6-9.8-22.1-18.6-35.7-22.1			c-6.6-0.9-13.3-1.8-19.9-2.7c-4.5-1-7.6-3.8-11.5-5.1c-1.6-0.6-3.4-1-5.2-1.4c-0.1,0-0.3,0-0.4,0c-7.3,0.2-11.2,0.5-22.8,1.3			s-20.8,2-26.8,3.3s-22.2,3-32,4.2s-22,2.3-34.3,3c-10.1,0.5-19.9,0.3-27.9-0.5c0.3-0.2,0.5-0.3,0.8-0.5c-4.2,2.4-6.1,6.5-9.8,9.3			c-9.7,7.3-26.3,19.6-32.6,29.6c-4.7,7.4-10.3,16.7-13,25.4c-2.9,9.3-2.4,18.8-4.5,29.6c-3.8,19.4-4.9,45.4-1.5,66.5			c0.6,8.4,1.2,16.7,1.8,25.1c3.7,22.5,2.5,45.5,6,67.1c-0.8,5.8-1.6,11.7-2.4,17.5c0,0.6,0,1.2,0.1,1.9			c4.4-10.3,12.3-17.4,21.8-18.1c15.6-1.1,29.6,15.8,31.2,37.7c1.6,22-9.8,40.7-25.5,41.8c-8.6,0.6-16.8-4.3-22.6-12.5			c1.5,6.5,3.7,13.7,5,20.8c0.4,8.4,0.8,16.7,1.2,25.1c-0.1,3.8-0.2,7.7-0.3,11.5c1.9,10.5,3.9,19.6,5.7,29			c0.8,6.1,1.6,12.3,2.4,18.4c1.9,5.3,6.7,7,8.5,10.6c1.5,4.7,3,9.5,4.5,14.2c0,3.6-4.4,7.3,0.3,10.6c0.1-0.9,0-4,0-4			c3.6,2.5,9.4,0.8,14.8,1.8c11.5,2.1,25.6,0.9,38.4,0.9c4.2,0,8.5,0,12.7,0c13.6,0.4,27.2,0.8,40.8,1.2c7.4,0.3,14.7,0.6,22.1,0.9			c29.5,5.4,58.8-3.7,82.2-8.8c10.5-1.2,21.6-2.6,32.1-3.8c0.4-8.5-1.8-16.7-3.1-24.5c0.9-11.2,1.8-22.4,2.7-33.5c0.1,0,0.2,0,0.3,0			c1.8,1.2,3.5,2.8,6,3.3c0.8,4.9,1.6,9.9,2.4,14.8c0.9,3.9,3.2,8.3,3.9,11.5c0.6,2.4-1,5.1-0.3,7.9c0.9,3.4,3.8,5.5,4.8,8.2			C751.9,735.8,752.7,749.2,752.7,749.2z M729.3,607.8c-7.5,1.1-14.9-2.1-21-8.1c-3.5-10.5-8.1-24.6-8.4-26.9			c-0.3-2.5-1.3-14.1-2.1-25.1c3.8-10.2,11-17.5,20.1-18.8c15.5-2.2,30.6,13.6,33.8,35.4C754.9,586.1,744.9,605.6,729.3,607.8z"></path>
            <path id="body_4__RNDID_7895849" stroke="#fffdf5" fill="#fffdf5" d="M646,286.1c0.3,0,0.6,0,0.9,0.1C646.6,286.1,646.3,286.1,646,286.1z"></path>
            <path id="body_5__RNDID_7895849" stroke="#fffdf5" fill="#fffdf5" d="M655.9,287.2c1.1,0.2,2.3,0.4,3.4,0.6C658.1,287.6,657,287.4,655.9,287.2z"></path>
            <path id="body_6__RNDID_7895849" stroke="#fffdf5" fill="#fffdf5" d="M515.8,298.6c0.2-0.1,0.5-0.3,0.7-0.4C516.3,298.3,516.1,298.4,515.8,298.6z"></path>
            <path id="body_7__RNDID_7895849" stroke="#fffdf5" fill="#fffdf5" d="M653.7,286.9c0.5,0.1,1.1,0.1,1.6,0.2C654.8,287,654.3,286.9,653.7,286.9z"></path>
            <path id="body_8__RNDID_7895849" stroke="#fffdf5" fill="#fffdf5" d="M648.3,286.3c0.4,0,0.8,0.1,1.2,0.1C649.1,286.3,648.7,286.3,648.3,286.3z"></path>
            <path id="body_9__RNDID_7895849" stroke="#fffdf5" fill="#fffdf5" d="M650.6,286.5c0.8,0.1,1.7,0.2,2.5,0.3C652.2,286.7,651.4,286.6,650.6,286.5z"></path>
            <path id="body_10__RNDID_7895849" stroke="#fffdf5" fill="#fffdf5" d="M750.8,755.5c0-0.2,0-0.4,0-0.6C750.8,755.1,750.8,755.2,750.8,755.5z"></path>
            <path id="body_11__RNDID_7895849" stroke="#fffdf5" fill="#fffdf5" d="M794.9,762.8c0,0.1-0.1,0.1-0.1,0.2C794.9,762.9,794.9,762.9,794.9,762.8z"></path>
            <path id="body_12__RNDID_7895849" stroke="#fffdf5" fill="#fffdf5" d="M794.6,763.5c0,0.1-0.1,0.1-0.1,0.2C794.6,763.6,794.6,763.6,794.6,763.5z"></path>
            <path id="body_13__RNDID_7895849" stroke="#fffdf5" fill="#fffdf5" d="M795.3,761.4c0,0.1,0,0.2,0,0.3C795.3,761.6,795.3,761.5,795.3,761.4z"></path>
            <path id="body_14__RNDID_7895849" stroke="#fffdf5" fill="#fffdf5" d="M795.2,762c0,0.1,0,0.2-0.1,0.3C795.2,762.2,795.2,762.1,795.2,762z"></path>
            <path id="body_15__RNDID_7895849" stroke="#fffdf5" fill="#fffdf5" d="M795.3,761.3c0-0.3,0-0.6,0-0.9C795.3,760.7,795.3,761,795.3,761.3z"></path>
            <path id="body_16__RNDID_7895849" stroke="#fffdf5" fill="#fffdf5" d="M750.9,756.8c0-0.2-0.1-0.3-0.1-0.5C750.8,756.5,750.9,756.6,750.9,756.8z"></path>
            <path id="body_17__RNDID_7895849" stroke="#fffdf5" fill="#fffdf5" d="M751.2,757.7c-0.1-0.2-0.2-0.5-0.2-0.7C751,757.2,751.1,757.5,751.2,757.7z"></path>
            <path id="body_18__RNDID_7895849" stroke="#fffdf5" fill="#fffdf5" d="M750.8,756.1c0-0.2,0-0.3,0-0.5C750.8,755.8,750.8,755.9,750.8,756.1z"></path>
            <path id="body_19__RNDID_7895849" stroke="#fffdf5" fill="#fffdf5" d="M512.6,590.3c-1.6-22-15.5-38.9-31.2-37.7c-9.4,0.7-17.3,7.8-21.8,18.1c0.3,7,0.6,14.1,0.8,21.1		c1.1,6.1,4.9,9.5,5.4,12.7c0.7,3.9-3,8.1-1.8,13.3c0.1,0.6,0.3,1.2,0.4,1.9c5.8,8.2,13.9,13.1,22.6,12.5		C502.8,631,514.2,612.3,512.6,590.3z"></path>
            <path id="body_20__RNDID_7895849" stroke="#fffdf5" fill="#fffdf5" d="M751.8,564.3c-3.1-21.8-18.3-37.7-33.8-35.4c-9.1,1.3-16.4,8.6-20.1,18.8c0.8,10.9,1.8,22.6,2.1,25.1		c0.3,2.3,4.9,16.4,8.4,26.9c6,6,13.4,9.2,21,8.1C744.9,605.6,754.9,586.1,751.8,564.3z"></path>
        </g>
    </g>
    <g data-layer="body" id="body_mask_RNDID_7895849" class="layer-mask">
        <g>
            <defs>
                <path id="body_0__RNDID_7895849__RNDID_7895849" stroke="#fffdf5" d="M506.8,761.6c-0.2,0-0.3-0.1-0.5-0.1C506.4,761.6,506.6,761.6,506.8,761.6z"></path>
            </defs>
            <clipPath id="body_0__RNDID_7895849_0_RNDID_7895849">
                <use xlink:href="#body_0__RNDID_7895849" overflow="visible"></use>
            </clipPath>
            <image class="melierung unmotted" overflow="visible" clip-path="url(#body_0__RNDID_7895849_0_RNDID_7895849)"
                                                width="1300" height="1500" xlink:href="https://s3.eu-central-1.amazonaws.com/heydorn/basics/melierung_ganzkoerper.jpg"></image>
        </g>
        <g>
            <defs>
                <path id="body_1__RNDID_7895849__RNDID_7895849" stroke="#fffdf5" d="M516.9,298c0.2-0.1,0.4-0.2,0.6-0.3C517.3,297.8,517.1,297.9,516.9,298z"></path>
            </defs>
            <clipPath id="body_1__RNDID_7895849_0_RNDID_7895849">
                <use xlink:href="#body_1__RNDID_7895849" overflow="visible"></use>
            </clipPath>
            <image class="melierung unmotted" overflow="visible" clip-path="url(#body_1__RNDID_7895849_0_RNDID_7895849)"
                                                width="1300" height="1500" xlink:href="https://s3.eu-central-1.amazonaws.com/heydorn/basics/melierung_ganzkoerper.jpg"></image>
        </g>
        <g>
            <defs>
                <path id="body_2__RNDID_7895849__RNDID_7895849" stroke="#fffdf5" d="M734.9,750l-0.3,2.3C734.7,751.5,734.8,750.8,734.9,750z"></path>
            </defs>
            <clipPath id="body_2__RNDID_7895849_0_RNDID_7895849">
                <use xlink:href="#body_2__RNDID_7895849" overflow="visible"></use>
            </clipPath>
            <image class="melierung unmotted" overflow="visible" clip-path="url(#body_2__RNDID_7895849_0_RNDID_7895849)"
                                                width="1300" height="1500" xlink:href="https://s3.eu-central-1.amazonaws.com/heydorn/basics/melierung_ganzkoerper.jpg"></image>
        </g>
        <g>
            <defs>
                <path id="body_3__RNDID_7895849__RNDID_7895849" stroke="#fffdf5" d="M752.7,749.2c-0.4,1.9-1.7,3.6-1.9,5.6c5,4,10.8,7.4,12.9,8.5c2.3,1.2,9.7,2.5,13,1.3   c2.9-1,11.8-1.7,18.7-4.2c-0.1-2.3-1.1-4.6-0.3-8.2c1.7-7.2,6.8-16.1,6.3-24.2c-1.8-1.2-3.7-2-6.6-2.1c-1.1-4.3,0.5-10.1,1.2-13.9   c2.6-13.5-2.6-22.3-10.9-26.3c-1.7-15.4-3.4-30.8-5.1-46.2c-1.3-14-2.6-28-3.9-42c-4.8-24.1-8.9-48.9-13.9-71.9   c-0.2-3.9-0.4-7.9-0.6-11.8c-2.1-10.1-4.8-21.1-6.9-31.7c-0.9-8.1-1.8-16.1-2.7-24.2c-0.4-8.6-0.8-17.1-1.2-25.7   c-0.5-10.9-1-21.8-1.5-32.6c-2.8-18.5-3-36.8-7.3-52.6c-2.9-10.8-4.4-20.3-10.3-27.8c-7.6-9.8-22.1-18.6-35.7-22.1   c-6.6-0.9-13.3-1.8-19.9-2.7c-4.5-1-7.6-3.8-11.5-5.1c-1.6-0.6-3.4-1-5.2-1.4c-0.1,0-0.3,0-0.4,0c-7.3,0.2-11.2,0.5-22.8,1.3   s-20.8,2-26.8,3.3s-22.2,3-32,4.2s-22,2.3-34.3,3c-10.1,0.5-19.9,0.3-27.9-0.5c0.3-0.2,0.5-0.3,0.8-0.5c-4.2,2.4-6.1,6.5-9.8,9.3   c-9.7,7.3-26.3,19.6-32.6,29.6c-4.7,7.4-10.3,16.7-13,25.4c-2.9,9.3-2.4,18.8-4.5,29.6c-3.8,19.4-4.9,45.4-1.5,66.5   c0.6,8.4,1.2,16.7,1.8,25.1c3.7,22.5,2.5,45.5,6,67.1c-0.8,5.8-1.6,11.7-2.4,17.5c0,0.6,0,1.2,0.1,1.9   c4.4-10.3,12.3-17.4,21.8-18.1c15.6-1.1,29.6,15.8,31.2,37.7c1.6,22-9.8,40.7-25.5,41.8c-8.6,0.6-16.8-4.3-22.6-12.5   c1.5,6.5,3.7,13.7,5,20.8c0.4,8.4,0.8,16.7,1.2,25.1c-0.1,3.8-0.2,7.7-0.3,11.5c1.9,10.5,3.9,19.6,5.7,29   c0.8,6.1,1.6,12.3,2.4,18.4c1.9,5.3,6.7,7,8.5,10.6c1.5,4.7,3,9.5,4.5,14.2c0,3.6-4.4,7.3,0.3,10.6c0.1-0.9,0-4,0-4   c3.6,2.5,9.4,0.8,14.8,1.8c11.5,2.1,25.6,0.9,38.4,0.9c4.2,0,8.5,0,12.7,0c13.6,0.4,27.2,0.8,40.8,1.2c7.4,0.3,14.7,0.6,22.1,0.9   c29.5,5.4,58.8-3.7,82.2-8.8c10.5-1.2,21.6-2.6,32.1-3.8c0.4-8.5-1.8-16.7-3.1-24.5c0.9-11.2,1.8-22.4,2.7-33.5c0.1,0,0.2,0,0.3,0   c1.8,1.2,3.5,2.8,6,3.3c0.8,4.9,1.6,9.9,2.4,14.8c0.9,3.9,3.2,8.3,3.9,11.5c0.6,2.4-1,5.1-0.3,7.9c0.9,3.4,3.8,5.5,4.8,8.2   C751.9,735.8,752.7,749.2,752.7,749.2z M729.3,607.8c-7.5,1.1-14.9-2.1-21-8.1c-3.5-10.5-8.1-24.6-8.4-26.9   c-0.3-2.5-1.3-14.1-2.1-25.1c3.8-10.2,11-17.5,20.1-18.8c15.5-2.2,30.6,13.6,33.8,35.4C754.9,586.1,744.9,605.6,729.3,607.8z"></path>
            </defs>
            <clipPath id="body_3__RNDID_7895849_0_RNDID_7895849">
                <use xlink:href="#body_3__RNDID_7895849" overflow="visible"></use>
            </clipPath>
            <image class="melierung unmotted" overflow="visible" clip-path="url(#body_3__RNDID_7895849_0_RNDID_7895849)"
                                                width="1300" height="1500" xlink:href="https://s3.eu-central-1.amazonaws.com/heydorn/basics/melierung_ganzkoerper.jpg"></image>
        </g>
        <g>
            <defs>
                <path id="body_4__RNDID_7895849__RNDID_7895849" stroke="#fffdf5" d="M646,286.1c0.3,0,0.6,0,0.9,0.1C646.6,286.1,646.3,286.1,646,286.1z"></path>
            </defs>
            <clipPath id="body_4__RNDID_7895849_0_RNDID_7895849">
                <use xlink:href="#body_4__RNDID_7895849" overflow="visible"></use>
            </clipPath>
            <image class="melierung unmotted" overflow="visible" clip-path="url(#body_4__RNDID_7895849_0_RNDID_7895849)"
                                                width="1300" height="1500" xlink:href="https://s3.eu-central-1.amazonaws.com/heydorn/basics/melierung_ganzkoerper.jpg"></image>
        </g>
        <g>
            <defs>
                <path id="body_5__RNDID_7895849__RNDID_7895849" stroke="#fffdf5" d="M655.9,287.2c1.1,0.2,2.3,0.4,3.4,0.6C658.1,287.6,657,287.4,655.9,287.2z"></path>
            </defs>
            <clipPath id="body_5__RNDID_7895849_0_RNDID_7895849">
                <use xlink:href="#body_5__RNDID_7895849" overflow="visible"></use>
            </clipPath>
            <image class="melierung unmotted" overflow="visible" clip-path="url(#body_5__RNDID_7895849_0_RNDID_7895849)"
                                                width="1300" height="1500" xlink:href="https://s3.eu-central-1.amazonaws.com/heydorn/basics/melierung_ganzkoerper.jpg"></image>
        </g>
        <g>
            <defs>
                <path id="body_6__RNDID_7895849__RNDID_7895849" stroke="#fffdf5" d="M515.8,298.6c0.2-0.1,0.5-0.3,0.7-0.4C516.3,298.3,516.1,298.4,515.8,298.6z"></path>
            </defs>
            <clipPath id="body_6__RNDID_7895849_0_RNDID_7895849">
                <use xlink:href="#body_6__RNDID_7895849" overflow="visible"></use>
            </clipPath>
            <image class="melierung unmotted" overflow="visible" clip-path="url(#body_6__RNDID_7895849_0_RNDID_7895849)"
                                                width="1300" height="1500" xlink:href="https://s3.eu-central-1.amazonaws.com/heydorn/basics/melierung_ganzkoerper.jpg"></image>
        </g>
        <g>
            <defs>
                <path id="body_7__RNDID_7895849__RNDID_7895849" stroke="#fffdf5" d="M653.7,286.9c0.5,0.1,1.1,0.1,1.6,0.2C654.8,287,654.3,286.9,653.7,286.9z"></path>
            </defs>
            <clipPath id="body_7__RNDID_7895849_0_RNDID_7895849">
                <use xlink:href="#body_7__RNDID_7895849" overflow="visible"></use>
            </clipPath>
            <image class="melierung unmotted" overflow="visible" clip-path="url(#body_7__RNDID_7895849_0_RNDID_7895849)"
                                                width="1300" height="1500" xlink:href="https://s3.eu-central-1.amazonaws.com/heydorn/basics/melierung_ganzkoerper.jpg"></image>
        </g>
        <g>
            <defs>
                <path id="body_8__RNDID_7895849__RNDID_7895849" stroke="#fffdf5" d="M648.3,286.3c0.4,0,0.8,0.1,1.2,0.1C649.1,286.3,648.7,286.3,648.3,286.3z"></path>
            </defs>
            <clipPath id="body_8__RNDID_7895849_0_RNDID_7895849">
                <use xlink:href="#body_8__RNDID_7895849" overflow="visible"></use>
            </clipPath>
            <image class="melierung unmotted" overflow="visible" clip-path="url(#body_8__RNDID_7895849_0_RNDID_7895849)"
                                                width="1300" height="1500" xlink:href="https://s3.eu-central-1.amazonaws.com/heydorn/basics/melierung_ganzkoerper.jpg"></image>
        </g>
        <g>
            <defs>
                <path id="body_9__RNDID_7895849__RNDID_7895849" stroke="#fffdf5" d="M650.6,286.5c0.8,0.1,1.7,0.2,2.5,0.3C652.2,286.7,651.4,286.6,650.6,286.5z"></path>
            </defs>
            <clipPath id="body_9__RNDID_7895849_0_RNDID_7895849">
                <use xlink:href="#body_9__RNDID_7895849" overflow="visible"></use>
            </clipPath>
            <image class="melierung unmotted" overflow="visible" clip-path="url(#body_9__RNDID_7895849_0_RNDID_7895849)"
                                                width="1300" height="1500" xlink:href="https://s3.eu-central-1.amazonaws.com/heydorn/basics/melierung_ganzkoerper.jpg"></image>
        </g>
        <g>
            <defs>
                <path id="body_10__RNDID_7895849__RNDID_7895849" stroke="#fffdf5" d="M750.8,755.5c0-0.2,0-0.4,0-0.6C750.8,755.1,750.8,755.2,750.8,755.5z"></path>
            </defs>
            <clipPath id="body_10__RNDID_7895849_0_RNDID_7895849">
                <use xlink:href="#body_10__RNDID_7895849" overflow="visible"></use>
            </clipPath>
            <image class="melierung unmotted" overflow="visible" clip-path="url(#body_10__RNDID_7895849_0_RNDID_7895849)"
                                                width="1300" height="1500" xlink:href="https://s3.eu-central-1.amazonaws.com/heydorn/basics/melierung_ganzkoerper.jpg"></image>
        </g>
        <g>
            <defs>
                <path id="body_11__RNDID_7895849__RNDID_7895849" stroke="#fffdf5" d="M794.9,762.8c0,0.1-0.1,0.1-0.1,0.2C794.9,762.9,794.9,762.9,794.9,762.8z"></path>
            </defs>
            <clipPath id="body_11__RNDID_7895849_0_RNDID_7895849">
                <use xlink:href="#body_11__RNDID_7895849" overflow="visible"></use>
            </clipPath>
            <image class="melierung unmotted" overflow="visible" clip-path="url(#body_11__RNDID_7895849_0_RNDID_7895849)"
                                                width="1300" height="1500" xlink:href="https://s3.eu-central-1.amazonaws.com/heydorn/basics/melierung_ganzkoerper.jpg"></image>
        </g>
        <g>
            <defs>
                <path id="body_12__RNDID_7895849__RNDID_7895849" stroke="#fffdf5" d="M794.6,763.5c0,0.1-0.1,0.1-0.1,0.2C794.6,763.6,794.6,763.6,794.6,763.5z"></path>
            </defs>
            <clipPath id="body_12__RNDID_7895849_0_RNDID_7895849">
                <use xlink:href="#body_12__RNDID_7895849" overflow="visible"></use>
            </clipPath>
            <image class="melierung unmotted" overflow="visible" clip-path="url(#body_12__RNDID_7895849_0_RNDID_7895849)"
                                                width="1300" height="1500" xlink:href="https://s3.eu-central-1.amazonaws.com/heydorn/basics/melierung_ganzkoerper.jpg"></image>
        </g>
        <g>
            <defs>
                <path id="body_13__RNDID_7895849__RNDID_7895849" stroke="#fffdf5" d="M795.3,761.4c0,0.1,0,0.2,0,0.3C795.3,761.6,795.3,761.5,795.3,761.4z"></path>
            </defs>
            <clipPath id="body_13__RNDID_7895849_0_RNDID_7895849">
                <use xlink:href="#body_13__RNDID_7895849" overflow="visible"></use>
            </clipPath>
            <image class="melierung unmotted" overflow="visible" clip-path="url(#body_13__RNDID_7895849_0_RNDID_7895849)"
                                                width="1300" height="1500" xlink:href="https://s3.eu-central-1.amazonaws.com/heydorn/basics/melierung_ganzkoerper.jpg"></image>
        </g>
        <g>
            <defs>
                <path id="body_14__RNDID_7895849__RNDID_7895849" stroke="#fffdf5" d="M795.2,762c0,0.1,0,0.2-0.1,0.3C795.2,762.2,795.2,762.1,795.2,762z"></path>
            </defs>
            <clipPath id="body_14__RNDID_7895849_0_RNDID_7895849">
                <use xlink:href="#body_14__RNDID_7895849" overflow="visible"></use>
            </clipPath>
            <image class="melierung unmotted" overflow="visible" clip-path="url(#body_14__RNDID_7895849_0_RNDID_7895849)"
                                                width="1300" height="1500" xlink:href="https://s3.eu-central-1.amazonaws.com/heydorn/basics/melierung_ganzkoerper.jpg"></image>
        </g>
        <g>
            <defs>
                <path id="body_15__RNDID_7895849__RNDID_7895849" stroke="#fffdf5" d="M795.3,761.3c0-0.3,0-0.6,0-0.9C795.3,760.7,795.3,761,795.3,761.3z"></path>
            </defs>
            <clipPath id="body_15__RNDID_7895849_0_RNDID_7895849">
                <use xlink:href="#body_15__RNDID_7895849" overflow="visible"></use>
            </clipPath>
            <image class="melierung unmotted" overflow="visible" clip-path="url(#body_15__RNDID_7895849_0_RNDID_7895849)"
                                                width="1300" height="1500" xlink:href="https://s3.eu-central-1.amazonaws.com/heydorn/basics/melierung_ganzkoerper.jpg"></image>
        </g>
        <g>
            <defs>
                <path id="body_16__RNDID_7895849__RNDID_7895849" stroke="#fffdf5" d="M750.9,756.8c0-0.2-0.1-0.3-0.1-0.5C750.8,756.5,750.9,756.6,750.9,756.8z"></path>
            </defs>
            <clipPath id="body_16__RNDID_7895849_0_RNDID_7895849">
                <use xlink:href="#body_16__RNDID_7895849" overflow="visible"></use>
            </clipPath>
            <image class="melierung unmotted" overflow="visible" clip-path="url(#body_16__RNDID_7895849_0_RNDID_7895849)"
                                                width="1300" height="1500" xlink:href="https://s3.eu-central-1.amazonaws.com/heydorn/basics/melierung_ganzkoerper.jpg"></image>
        </g>
        <g>
            <defs>
                <path id="body_17__RNDID_7895849__RNDID_7895849" stroke="#fffdf5" d="M751.2,757.7c-0.1-0.2-0.2-0.5-0.2-0.7C751,757.2,751.1,757.5,751.2,757.7z"></path>
            </defs>
            <clipPath id="body_17__RNDID_7895849_0_RNDID_7895849">
                <use xlink:href="#body_17__RNDID_7895849" overflow="visible"></use>
            </clipPath>
            <image class="melierung unmotted" overflow="visible" clip-path="url(#body_17__RNDID_7895849_0_RNDID_7895849)"
                                                width="1300" height="1500" xlink:href="https://s3.eu-central-1.amazonaws.com/heydorn/basics/melierung_ganzkoerper.jpg"></image>
        </g>
        <g>
            <defs>
                <path id="body_18__RNDID_7895849__RNDID_7895849" stroke="#fffdf5" d="M750.8,756.1c0-0.2,0-0.3,0-0.5C750.8,755.8,750.8,755.9,750.8,756.1z"></path>
            </defs>
            <clipPath id="body_18__RNDID_7895849_0_RNDID_7895849">
                <use xlink:href="#body_18__RNDID_7895849" overflow="visible"></use>
            </clipPath>
            <image class="melierung unmotted" overflow="visible" clip-path="url(#body_18__RNDID_7895849_0_RNDID_7895849)"
                                                width="1300" height="1500" xlink:href="https://s3.eu-central-1.amazonaws.com/heydorn/basics/melierung_ganzkoerper.jpg"></image>
        </g>
        <g>
            <defs>
                <path id="body_19__RNDID_7895849__RNDID_7895849" stroke="#fffdf5" d="M512.6,590.3c-1.6-22-15.5-38.9-31.2-37.7c-9.4,0.7-17.3,7.8-21.8,18.1c0.3,7,0.6,14.1,0.8,21.1  c1.1,6.1,4.9,9.5,5.4,12.7c0.7,3.9-3,8.1-1.8,13.3c0.1,0.6,0.3,1.2,0.4,1.9c5.8,8.2,13.9,13.1,22.6,12.5  C502.8,631,514.2,612.3,512.6,590.3z"></path>
            </defs>
            <clipPath id="body_19__RNDID_7895849_0_RNDID_7895849">
                <use xlink:href="#body_19__RNDID_7895849" overflow="visible"></use>
            </clipPath>
            <image class="melierung unmotted" overflow="visible" clip-path="url(#body_19__RNDID_7895849_0_RNDID_7895849)"
                                                width="1300" height="1500" xlink:href="https://s3.eu-central-1.amazonaws.com/heydorn/basics/melierung_ganzkoerper.jpg"></image>
        </g>
        <g>
            <defs>
                <path id="body_20__RNDID_7895849__RNDID_7895849" stroke="#fffdf5" d="M751.8,564.3c-3.1-21.8-18.3-37.7-33.8-35.4c-9.1,1.3-16.4,8.6-20.1,18.8c0.8,10.9,1.8,22.6,2.1,25.1  c0.3,2.3,4.9,16.4,8.4,26.9c6,6,13.4,9.2,21,8.1C744.9,605.6,754.9,586.1,751.8,564.3z"></path>
            </defs>
            <clipPath id="body_20__RNDID_7895849_0_RNDID_7895849">
                <use xlink:href="#body_20__RNDID_7895849" overflow="visible"></use>
            </clipPath>
            <image class="melierung unmotted" overflow="visible" clip-path="url(#body_20__RNDID_7895849_0_RNDID_7895849)"
                                                width="1300" height="1500" xlink:href="https://s3.eu-central-1.amazonaws.com/heydorn/basics/melierung_ganzkoerper.jpg"></image>
        </g>
    </g>
    <g id="elbow_patches">
        <path id="elbow_patches_0__RNDID_6034374" stroke="#fffdf5" fill="#fffdf5" d="M512.6,590.3c-1.6-22-15.5-38.9-31.2-37.7c-9.4,0.7-17.3,7.8-21.8,18.1c0.3,7,0.6,14.1,0.8,21.1		c1.1,6.1,4.9,9.5,5.4,12.7c0.7,3.9-3,8.1-1.8,13.3c0.1,0.6,0.3,1.2,0.4,1.9c5.8,8.2,13.9,13.1,22.6,12.5		C502.8,631,514.2,612.3,512.6,590.3z"></path>
        <path id="elbow_patches_1__RNDID_6034374" stroke="#fffdf5" fill="#fffdf5" d="M751.8,564.3c-3.1-21.8-18.3-37.7-33.8-35.4c-9.1,1.3-16.4,8.6-20.1,18.8c0.8,10.9,1.8,22.6,2.1,25.1		c0.3,2.3,4.9,16.4,8.4,26.9c6,6,13.4,9.2,21,8.1C744.9,605.6,754.9,586.1,751.8,564.3z"></path>
    </g>
    <g data-layer="elbow_patches" id="elbow_patches_mask_RNDID_6034374" class="layer-mask">
        <g>
            <defs>
                <path id="elbow_patches_0__RNDID_6034374__RNDID_6034374" stroke="#fffdf5"
                                                    d="M512.6,590.3c-1.6-22-15.5-38.9-31.2-37.7c-9.4,0.7-17.3,7.8-21.8,18.1c0.3,7,0.6,14.1,0.8,21.1  c1.1,6.1,4.9,9.5,5.4,12.7c0.7,3.9-3,8.1-1.8,13.3c0.1,0.6,0.3,1.2,0.4,1.9c5.8,8.2,13.9,13.1,22.6,12.5  C502.8,631,514.2,612.3,512.6,590.3z"></path>
            </defs>
            <clipPath id="elbow_patches_0__RNDID_6034374_0_RNDID_6034374">
                <use xlink:href="#elbow_patches_0__RNDID_6034374" overflow="visible"></use>
            </clipPath>
            <image class="melierung unmotted" overflow="visible" clip-path="url(#elbow_patches_0__RNDID_6034374_0_RNDID_6034374)"
                                                width="1300" height="1500" xlink:href="https://s3.eu-central-1.amazonaws.com/heydorn/basics/melierung_ganzkoerper.jpg"></image>
        </g>
        <g>
            <defs>
                <path id="elbow_patches_1__RNDID_6034374__RNDID_6034374" stroke="#fffdf5"
                                                    d="M751.8,564.3c-3.1-21.8-18.3-37.7-33.8-35.4c-9.1,1.3-16.4,8.6-20.1,18.8c0.8,10.9,1.8,22.6,2.1,25.1  c0.3,2.3,4.9,16.4,8.4,26.9c6,6,13.4,9.2,21,8.1C744.9,605.6,754.9,586.1,751.8,564.3z"></path>
            </defs>
            <clipPath id="elbow_patches_1__RNDID_6034374_0_RNDID_6034374">
                <use xlink:href="#elbow_patches_1__RNDID_6034374" overflow="visible"></use>
            </clipPath>
            <image class="melierung unmotted" overflow="visible" clip-path="url(#elbow_patches_1__RNDID_6034374_0_RNDID_6034374)"
                                                width="1300" height="1500" xlink:href="https://s3.eu-central-1.amazonaws.com/heydorn/basics/melierung_ganzkoerper.jpg"></image>
        </g>
    </g>
    <g id="hem_border">
        <path id="hem_border_0__RNDID_6990100" stroke="#fffdf5" fill="#fffdf5" d="M492,755.8c3.6,2.5,9.4,0.8,14.8,1.8c11.5,2.1,25.6,0.9,38.4,0.9c4.2,0,8.5,0,12.7,0		c13.6,0.4,27.2,0.8,40.8,1.2c7.4,0.3,14.7,0.6,22.1,0.9c29.5,5.4,58.8-3.7,82.2-8.8c10.6-1.2,21.7-2.6,32.2-3.8l-0.5,4.2		c-10.6,1.2-21.2,2.4-31.7,3.6c-23.4,5.1-52.7,14.1-82.2,8.8c-7.4-0.3-14.7-0.6-22.1-0.9c-13.6-0.4-27.2-0.8-40.8-1.2		c-4.2,0-8.5,0-12.7,0c-12.8,0-26.8,1.2-38.4-0.9c-5.4-1-15.5,2.5-14.8-1.8C492.1,759,492,755.8,492,755.8z"></path>
    </g>
    <g data-layer="hem_border" id="hem_border_mask_RNDID_6990100" class="layer-mask">
        <g>
            <defs>
                <path id="hem_border_0__RNDID_6990100__RNDID_6990100" stroke="#fffdf5"
                                                    d="M492,755.8c3.6,2.5,9.4,0.8,14.8,1.8c11.5,2.1,25.6,0.9,38.4,0.9c4.2,0,8.5,0,12.7,0  c13.6,0.4,27.2,0.8,40.8,1.2c7.4,0.3,14.7,0.6,22.1,0.9c29.5,5.4,58.8-3.7,82.2-8.8c10.6-1.2,21.7-2.6,32.2-3.8l-0.5,4.2  c-10.6,1.2-21.2,2.4-31.7,3.6c-23.4,5.1-52.7,14.1-82.2,8.8c-7.4-0.3-14.7-0.6-22.1-0.9c-13.6-0.4-27.2-0.8-40.8-1.2  c-4.2,0-8.5,0-12.7,0c-12.8,0-26.8,1.2-38.4-0.9c-5.4-1-15.5,2.5-14.8-1.8C492.1,759,492,755.8,492,755.8z"></path>
            </defs>
            <clipPath id="hem_border_0__RNDID_6990100_0_RNDID_6990100">
                <use xlink:href="#hem_border_0__RNDID_6990100" overflow="visible"></use>
            </clipPath>
            <image class="melierung unmotted" overflow="visible" clip-path="url(#hem_border_0__RNDID_6990100_0_RNDID_6990100)"
                                                width="1300" height="1500" xlink:href="https://s3.eu-central-1.amazonaws.com/heydorn/basics/melierung_ganzkoerper.jpg"></image>
        </g>
    </g>
    <g id="neckline_border">
        <path id="neckline_border_0__RNDID_4512271" stroke="#fffdf5" fill="#fffdf5" d="M609.2,292.5c6-1.3,15.2-2.5,26.8-3.3s15.5-1.2,22.8-1.3c0.2,0,0.3,0,0.4,0c-4.9-1-10.5-1.6-15.6-1.9		c-9.2,0.9-18.3,1.8-27.5,2.7c-6.9,1.7-15.1,2.2-22.4,3.9c-5,1.2-10,0.4-12.7,1.5c-2.4-1.5-13.7,0.8-16,1.5		c-3.4-1.3-13,0.2-16.6,1.2c-10,0.2-19.9,0.4-29.9,0.6c-1.4,0.4-2.6,1-3.6,1.7c8,0.8,17.8,1.1,27.9,0.5c12.3-0.7,24.5-1.8,34.3-3		S603.2,293.8,609.2,292.5z"></path>
    </g>
    <g data-layer="neckline_border" id="neckline_border_mask_RNDID_4512271" class="layer-mask">
        <g>
            <defs>
                <path id="neckline_border_0__RNDID_4512271__RNDID_4512271" stroke="#fffdf5"
                                                    d="M609.2,292.5c6-1.3,15.2-2.5,26.8-3.3s15.5-1.2,22.8-1.3c0.2,0,0.3,0,0.4,0c-4.9-1-10.5-1.6-15.6-1.9  c-9.2,0.9-18.3,1.8-27.5,2.7c-6.9,1.7-15.1,2.2-22.4,3.9c-5,1.2-10,0.4-12.7,1.5c-2.4-1.5-13.7,0.8-16,1.5  c-3.4-1.3-13,0.2-16.6,1.2c-10,0.2-19.9,0.4-29.9,0.6c-1.4,0.4-2.6,1-3.6,1.7c8,0.8,17.8,1.1,27.9,0.5c12.3-0.7,24.5-1.8,34.3-3  S603.2,293.8,609.2,292.5z"></path>
            </defs>
            <clipPath id="neckline_border_0__RNDID_4512271_0_RNDID_4512271">
                <use xlink:href="#neckline_border_0__RNDID_4512271" overflow="visible"></use>
            </clipPath>
            <image class="melierung unmotted" overflow="visible" clip-path="url(#neckline_border_0__RNDID_4512271_0_RNDID_4512271)"
                                                width="1300" height="1500" xlink:href="https://s3.eu-central-1.amazonaws.com/heydorn/basics/melierung_ganzkoerper.jpg"></image>
        </g>
    </g>
    <g id="cuff_border">
        <path id="cuff_border_0__RNDID_2186739" stroke="#fffdf5" fill="#fffdf5" d="M751.2,757.7c1.2,2.4,3.5,3.2,5.7,4.5c13.5,8.2,20.6,5.6,37.2,2.1c1-1.4,1.2-2.7,1.2-3.9		c-6.9,2.6-15.8,3.2-18.7,4.2c-3.3,1.2-10.7-0.2-13-1.3c-2.1-1-7.8-4.5-12.9-8.5C750.7,755.7,750.8,756.7,751.2,757.7z"></path>
    </g>
    <g data-layer="cuff_border" id="cuff_border_mask_RNDID_2186739" class="layer-mask">
        <g>
            <defs>
                <path id="cuff_border_0__RNDID_2186739__RNDID_2186739" stroke="#fffdf5"
                                                    d="M751.2,757.7c1.2,2.4,3.5,3.2,5.7,4.5c13.5,8.2,20.6,5.6,37.2,2.1c1-1.4,1.2-2.7,1.2-3.9  c-6.9,2.6-15.8,3.2-18.7,4.2c-3.3,1.2-10.7-0.2-13-1.3c-2.1-1-7.8-4.5-12.9-8.5C750.7,755.7,750.8,756.7,751.2,757.7z"></path>
            </defs>
            <clipPath id="cuff_border_0__RNDID_2186739_0_RNDID_2186739">
                <use xlink:href="#cuff_border_0__RNDID_2186739" overflow="visible"></use>
            </clipPath>
            <image class="melierung unmotted" overflow="visible" clip-path="url(#cuff_border_0__RNDID_2186739_0_RNDID_2186739)"
                                                width="1300" height="1500" xlink:href="https://s3.eu-central-1.amazonaws.com/heydorn/basics/melierung_ganzkoerper.jpg"></image>
        </g>
    </g>
    <g id="Produktbild" style="mix-blend-mode:multiply">
        <g>
            <!--<clipPath id="SVGID_4_produktbild_"><path id="SVGID_produktbild_"  d="M795,752.3c1.7-7.2,6.8-16.1,6.3-24.2c-1.8-1.2-3.7-2-6.6-2.1c-1.1-4.3,0.5-10.1,1.2-13.9  c2.6-13.5-2.6-22.3-10.9-26.3c-1.7-15.4-3.4-30.8-5.1-46.2c-1.3-14-2.6-28-3.9-42c-4.8-24.1-8.9-48.9-13.9-71.9  c-0.2-3.9-0.4-7.9-0.6-11.8c-2.1-10.1-4.8-21.1-6.9-31.7c-0.9-8.1-1.8-16.1-2.7-24.2c-0.4-8.6-0.8-17.1-1.2-25.7  c-0.5-10.9-1-21.8-1.5-32.6c-2.8-18.5-3-36.8-7.3-52.6c-2.9-10.8-4.4-20.3-10.3-27.8c-7.6-9.8-22.1-18.6-35.7-22.1  c-6.6-0.9-13.3-1.8-19.9-2.7c-4.5-1-7.6-3.8-11.5-5.1c-5.8-2.1-13.8-2.9-20.8-3.3c-9.2,0.9-18.3,1.8-27.5,2.7  c-6.9,1.7-15.1,2.2-22.4,3.9c-5,1.2-10,0.4-12.7,1.5c-2.4-1.5-13.7,0.8-16,1.5c-3.4-1.3-13,0.2-16.6,1.2c-10,0.2-19.9,0.4-29.9,0.6  c-6.3,1.9-8.2,7.2-12.7,10.6c-9.7,7.3-26.3,19.6-32.6,29.6c-4.7,7.4-10.3,16.7-13,25.4c-2.9,9.3-2.4,18.8-4.5,29.6  c-3.8,19.4-4.9,45.4-1.5,66.5c0.6,8.4,1.2,16.7,1.8,25.1c3.7,22.5,2.5,45.5,6,67.1c-0.8,5.8-1.6,11.7-2.4,17.5  c0.3,7.7,0.6,15.3,0.9,23c1.1,6.1,4.9,9.5,5.4,12.7c0.7,3.9-3,8.1-1.8,13.3c1.5,7,4.1,14.9,5.4,22.7c0.4,8.4,0.8,16.7,1.2,25.1  c-0.1,3.8-0.2,7.7-0.3,11.5c1.9,10.5,3.9,19.6,5.7,29c0.8,6.1,1.6,12.3,2.4,18.4c1.9,5.3,6.7,7,8.5,10.6c1.5,4.7,3,9.5,4.5,14.2  c0,3.6-4.4,7.3,0.3,10.6c3.6,2.5,9.4,0.8,14.8,1.8c11.5,2.1,25.6,0.9,38.4,0.9c4.2,0,8.5,0,12.7,0c13.6,0.4,27.2,0.8,40.8,1.2  c7.4,0.3,14.7,0.6,22.1,0.9c29.5,5.4,58.8-3.7,82.2-8.8c10.6-1.2,21.2-2.4,31.7-3.6c1.6-10-1.2-19.7-2.7-28.7  c0.9-11.2,1.8-22.4,2.7-33.5c0.1,0,0.2,0,0.3,0c1.8,1.2,3.5,2.8,6,3.3c0.8,4.9,1.6,9.9,2.4,14.8c0.9,3.9,3.2,8.3,3.9,11.5  c0.6,2.4-1,5.1-0.3,7.9c0.9,3.4,3.8,5.5,4.8,8.2c0.1,0.2,0.9,13.6,0.9,13.6c-0.6,2.7-3,5.1-1.5,8.5c1.2,2.4,3.5,3.2,5.7,4.5  c13.5,8.2,20.6,5.6,37.2,2.1C797,760.2,793.8,757.7,795,752.3z"></path></clipPath>-->
            <!--<image overflow="visible" clip-path="url(#SVGID_4_produktbild_)" width="1300" height="1500" xlink:href="https://s3.eu-central-1.amazonaws.com/heydorn/basics/dobdob_004_round-neck_m__b21_0040.jpg"></image>-->
            <image overflow="visible" width="1300" height="1500" xlink:href="https://s3.eu-central-1.amazonaws.com/heydorn/basics/dob004/4.jpg"></image>
        </g>
    </g>
</svg>